<?xml version="1.0" encoding="utf-8"?>
<!-- Generator: Adobe Illustrator 26.1.0, SVG Export Plug-In . SVG Version: 6.00 Build 0)  -->
<svg version="1.1" id="Layer_1" xmlns="http://www.w3.org/2000/svg" xmlns:xlink="http://www.w3.org/1999/xlink" x="0px" y="0px"
	 viewBox="0 0 87.8172 32.2518" style="enable-background:new 0 0 87.8172 32.2518;" xml:space="preserve">
<style type="text/css">
	.st0{fill:#0F0F0F;}
</style>
<g>
	<path class="st0" d="M0,5.3194c4.4811,8.9622,8.9316,17.8785,13.4586,26.9324c4.5576-9.0386,9.054-17.9549,13.5656-26.9324H0z
		 M16.0279,10.7029c0.8412-0.1224,0.5506,0.4741,0.6271,0.887c0.1224,0.78-0.3823,0.6882-0.6729,0.6577
		c-0.9024,0-0.8411,0-0.9176-0.8718C14.9726,10.4581,15.5844,10.7793,16.0279,10.7029z M14.3303,13.991
		c0.1377,0.7495-0.367,0.5965-0.8718,0.5965c-0.5506,0.153-0.78-0.0765-0.7188-0.7494c0.0611-0.9788-0.0765-0.7036,0.9176-0.8106
		C14.5751,12.9357,14.2539,13.5475,14.3303,13.991z M10.3693,11.5746c0.0765-0.4436-0.1683-0.9788,0.6881-0.8871
		c0.9024,0.1071,0.9024,0.0306,0.9024,0.8871c0.1224,0.5046-0.0459,0.7799-0.7188,0.6881
		C10.7974,12.2017,10.2163,12.4311,10.3693,11.5746z M11.9751,13.8534c0.0611,0.6882-0.2141,0.8718-0.8411,0.7035
		c-0.7036,0.2448-0.78-0.1376-0.78-0.7341c0.0153-0.5352,0.0305-0.8565,0.7341-0.7953
		C11.9598,13.104,11.9139,13.0428,11.9751,13.8534z M11.9598,16.0098c0,0.9329,0,0.8718-0.9329,0.9482
		c-0.8565,0.0765-0.5965-0.4741-0.6576-0.9023c-0.1377-0.8565,0.4435-0.6271,0.887-0.6729
		C11.8527,15.3369,12.128,15.5052,11.9598,16.0098z M13.3974,19.2827c-0.4894,0.1224-0.7036-0.0765-0.6729-0.6882
		c0.0611-0.8718,0.0153-0.8565,0.8411-0.8871c0.5047-0.0152,0.8411,0,0.78,0.6729C14.2692,19.2674,14.3303,19.2827,13.3974,19.2827z
		 M13.6115,16.9427c-0.8718,0-0.8106-0.0152-0.8871-0.8411c-0.0611-0.6882,0.2294-0.8258,0.78-0.6882
		c0.5047-0.0611,0.9023-0.0918,0.8411,0.6271C14.2692,16.9275,14.3303,16.9427,13.6115,16.9427z M13.6115,12.2628
		c-0.8565-0.0305-0.8718,0-0.8718-0.7647c0.0153-0.7952,0.0153-0.7188,0.9788-0.8105c0.7952-0.0611,0.5964,0.4282,0.6117,0.9482
		C14.4985,12.171,14.1927,12.2934,13.6115,12.2628z M15.0645,13.6393c-0.1377-0.4741,0.1223-0.6423,0.7035-0.6118
		c0.9788,0.0612,0.8718-0.1376,0.8718,0.78c0.0153,0.78,0,0.7189-0.9482,0.7953C14.8809,14.6792,15.095,14.1745,15.0645,13.6393z
		 M15.7526,16.9427c-0.5046,0.1224-0.7494-0.0458-0.6881-0.7188c0.0611-0.8258,0.0152-0.8258,0.7799-0.8258
		c0.4436-0.0153,0.8871-0.1071,0.8259,0.6423C16.5939,16.9275,16.655,16.9427,15.7526,16.9427z"/>
	<path class="st0" d="M44.5423,23.9275c0.3177-1.0766,0.6392-2.152,0.9525-3.2298c0.9976-3.4321,1.9914-6.8652,2.9896-10.2971
		c0.0599-0.2059,0.071-0.4409,0.406-0.435c1.0055,0.0177,2.0115,0.0064,3.0744,0.0064c-0.7632,2.536-1.5078,5.0114-2.2532,7.4865
		c-0.9003,2.9894-1.8109,5.9758-2.6908,8.9712c-0.1217,0.4142-0.2926,0.5367-0.7177,0.5258
		c-1.2561-0.0322-2.514-0.0273-3.7704-0.0014c-0.3559,0.0073-0.4853-0.1128-0.5822-0.4395
		c-1.5828-5.337-3.1718-10.6723-4.7828-16.0008c-0.1451-0.4798-0.0291-0.5547,0.4132-0.5389
		c0.7614,0.0273,1.5264,0.0385,2.2863-0.0048c0.4222-0.0241,0.554,0.1502,0.6589,0.5141c1.2923,4.4799,2.5984,8.9558,3.901,13.4328
		C44.4655,23.9204,44.5039,23.9239,44.5423,23.9275z"/>
	<path class="st0" d="M73.5749,20.774c-0.0005,1.8752-0.0122,3.7506,0.0086,5.6256c0.0046,0.4106-0.0649,0.6129-0.5288,0.5531
		c-0.3243-0.0418-0.6599-0.0282-0.9878-0.0042c-0.5684,0.0416-1.0605,0.0376-1.103-0.7379
		c-0.0236-0.4301-0.3092-0.1815-0.4837-0.1038c-1.4232,0.6341-2.905,1.0322-4.4657,1.0892
		c-1.6084,0.0588-2.5511-0.7326-2.8287-2.3105c-0.0971-0.5522-0.1167-1.1038-0.1161-1.6607
		c0.0032-2.7201,0.0106-5.4403-0.0077-8.1603c-0.0028-0.4168,0.076-0.5772,0.5313-0.5467c0.6771,0.0453,1.362,0.0485,2.0386,0
		c0.493-0.0353,0.566,0.1524,0.5625,0.5909c-0.0204,2.5551-0.0116,5.1104-0.0103,7.6657c0.0007,1.3031,0.3475,1.5889,1.6106,1.337
		c0.1009-0.0201,0.2038-0.0311,0.3036-0.0554c2.3559-0.5744,2.3559-0.5746,2.3558-2.969c-0.0001-2.0195,0.0109-4.0391-0.0097-6.0583
		c-0.0042-0.4087,0.1105-0.5289,0.5173-0.5078c0.6783,0.035,1.3612,0.0366,2.0392-0.0004c0.4469-0.0244,0.5959,0.0827,0.5876,0.5662
		C73.5563,16.9821,73.5754,18.8782,73.5749,20.774z"/>
	<path class="st0" d="M61.2213,17.5087c-0.1988-1.56-0.9788-2.5388-2.4929-2.9365c-1.8353-0.4894-3.6706-0.3211-5.5211,0
		c-1.2846,0.2141-1.2846,0.2294-1.0552,1.4836c0.0305,0.1682,0.0458,0.3211,0.0611,0.4894
		c0.0306,0.5199,0.1835,0.7035,0.7953,0.5812c1.2235-0.2754,2.4776-0.3518,3.7469-0.2141c0.9482,0.0918,1.3459,0.5199,1.4071,1.4681
		c0.0152,0.3823-0.0306,0.78,0.0152,1.1777c0.0306,0.3823-0.1223,0.4741-0.4893,0.4741c-1.2083,0.0153-2.4318-0.1071-3.6399,0.0765
		c-1.4223,0.2141-2.1565,0.9177-2.4165,2.3247c-0.1377,0.6423-0.1377,1.3152-0.0306,1.9577
		c0.3059,1.9269,1.4071,2.8446,3.3494,2.814c1.1317-0.0153,2.187-0.3212,3.1811-0.8718c0.1682-0.0918,0.3977-0.3059,0.4435,0.0765
		c0.0612,0.5506,0.3977,0.566,0.8259,0.5353c0.4435-0.0153,0.9023-0.0306,1.3611,0c0.3823,0.0306,0.5353-0.0459,0.52-0.4894
		c-0.0306-1.3306,0-2.6764,0-4.007C61.2365,20.7968,61.4201,19.145,61.2213,17.5087z M58.1777,23.8249
		c-0.0305,0.2754-0.1376,0.3977-0.367,0.4894c-0.7341,0.3059-1.4835,0.4894-2.2788,0.413c-0.6729-0.0458-0.9635-0.3977-0.994-1.147
		c-0.0153-0.8718,0.1987-1.2082,0.9023-1.2999c0.413-0.0459,0.8564,0,1.2847,0C58.2848,22.2497,58.2696,22.2497,58.1777,23.8249z"/>
	<path class="st0" d="M81.5014,20.8125c0-1.1325-0.0107-2.2651,0.0069-3.3973c0.0049-0.3164-0.0752-0.427-0.4073-0.4228
		c-0.4668,0.0058-1.0897,0.2135-1.3628-0.0873c-0.2927-0.3224-0.0809-0.9417-0.088-1.4308
		c-0.0136-0.9427-0.004-0.9428,0.9123-0.9435c0.1647-0.0001,0.3314-0.0171,0.4938,0.0023c0.3462,0.0415,0.4653-0.087,0.453-0.4431
		c-0.0255-0.7404,0.0022-1.4824-0.0124-2.2234c-0.0056-0.2846,0.0352-0.4546,0.3763-0.488c0.7774-0.076,1.5535-0.1759,2.3247-0.2997
		c0.3315-0.0532,0.4287,0.028,0.4215,0.3629c-0.019,0.885,0.0094,1.7711-0.0138,2.6558c-0.0092,0.3494,0.0925,0.4667,0.4473,0.4562
		c0.7818-0.0231,1.5651,0.0054,2.3472-0.0127c0.3063-0.0071,0.4518,0.0515,0.4101,0.4002c-0.0684,0.5717-0.114,1.1472-0.1405,1.7225
		c-0.0145,0.3143-0.1733,0.3644-0.4387,0.3601c-0.7-0.0114-1.4008,0.0128-2.1001-0.0112c-0.3762-0.0129-0.5355,0.0572-0.5294,0.4957
		c0.0274,1.9557,0.0084,3.912,0.0138,5.8681c0.0025,0.9158,0.3677,1.2566,1.2945,1.2133c0.2648-0.0124,0.5457-0.0209,0.7876-0.1136
		c0.5754-0.2206,0.6961,0.0775,0.7343,0.5519c0.0296,0.368,0.0393,0.7521,0.1567,1.0953c0.177,0.5174-0.0344,0.6874-0.4956,0.7883
		c-1.0714,0.2345-2.1435,0.414-3.2368,0.1809c-1.5303-0.3263-2.3065-1.2871-2.3469-2.9446
		c-0.027-1.1112-0.0051-2.2236-0.0051-3.3355C81.5032,20.8125,81.5023,20.8125,81.5014,20.8125z"/>
	<path class="st0" d="M78.3687,18.0292c-0.0006,2.7826-0.012,5.5653,0.0105,8.3477c0.0038,0.4632-0.1115,0.6076-0.5807,0.5786
		c-0.6982-0.0432-1.4014-0.0241-2.1017-0.006c-0.3197,0.0082-0.4745-0.0427-0.4737-0.4256
		c0.012-5.5445,0.0105-11.0891,0.002-16.6337c-0.0005-0.3338,0.0972-0.4788,0.4408-0.512c0.7372-0.0712,1.4778-0.1433,2.2033-0.2849
		c0.4606-0.0899,0.5084,0.0766,0.5067,0.4646C78.3637,12.3815,78.3694,15.2054,78.3687,18.0292z"/>
	<path class="st0" d="M37.0082,2.941c0.0002-0.8238,0.0224-1.6484-0.0082-2.4711c-0.0182-0.4911,0.297-0.3911,0.5697-0.3916
		c0.2701-0.0005,0.5931-0.1053,0.5593,0.3888c-0.0365,0.533,0.006,1.0709-0.0145,1.6056C38.1033,2.3699,38.202,2.4724,38.5,2.4602
		c0.4935-0.0201,0.9891-0.0201,1.4825,0.0007c0.2799,0.0118,0.3499-0.0936,0.342-0.3552c-0.0167-0.5556,0.016-1.113-0.0116-1.6678
		c-0.0259-0.5215,0.3436-0.3463,0.5886-0.356c0.2364-0.0094,0.5442-0.1306,0.5387,0.3401c-0.0194,1.668-0.0237,3.3366,0.0013,5.0044
		c0.0077,0.5176-0.3269,0.3514-0.5749,0.3635c-0.2713,0.0132-0.5903,0.1029-0.5555-0.3892
		c0.0377-0.5328-0.0085-1.0711,0.0149-1.6055c0.0134-0.3058-0.097-0.3872-0.3863-0.3742c-0.4728,0.0211-0.9483,0.0256-1.4206-0.0005
		c-0.3417-0.0189-0.4183,0.1219-0.4045,0.4315c0.0219,0.4933-0.0296,0.9917,0.0167,1.4816
		c0.0453,0.4795-0.2138,0.4793-0.5527,0.4647C37.2696,5.7851,36.9667,5.8661,36.996,5.35
		C37.0416,4.5493,37.008,3.7442,37.0082,2.941z"/>
	<path class="st0" d="M72.0034,2.6583c-0.1224-0.7035-0.52-1.0247-1.2235-1.0706c-0.3518-0.0306-0.6882,0.0611-1.0247,0.1835
		c-0.1988,0.0918-0.3211,0.2141-0.5659-0.0458c-0.2294-0.2448-0.7952-0.0459-0.7952,0.2294c-0.0153,1.8659,0,3.747,0,5.6129
		c1.1011-0.0918,1.1011-0.0918,1.1011-1.1165V6.3289C69.4034,5.87,69.5869,5.7018,70.061,5.8242
		c0.2141,0.0611,0.4436,0.0611,0.6729,0.0458c0.8106-0.0305,1.2694-0.4282,1.3152-1.2388
		C72.0951,3.9736,72.1105,3.3159,72.0034,2.6583z M70.9939,4.3712c0,0.4894-0.2447,0.6729-0.7035,0.6118
		c-0.3823-0.0459-0.9177,0.0918-0.7953-0.6271c0.0306-0.1835,0-0.367,0-0.5506c0-1.0706,0.0765-1.2082,0.7341-1.3306
		c0.4589-0.0765,0.7647,0.0611,0.7647,0.5965C70.9787,3.5148,70.9787,3.9429,70.9939,4.3712z"/>
	<path class="st0" d="M51.2965,1.9105c0.589-0.1609,1.0686-0.3541,1.5951-0.3412c0.5083,0.0125,0.8308,0.2506,0.8972,0.7495
		c0.1445,1.0856,0.0733,2.1805,0.045,3.2685c-0.0102,0.3943-0.4536,0.1365-0.6933,0.1915
		c-0.2239,0.0514-0.3883-0.0022-0.3806-0.3083c0.018-0.7202,0.0169-1.4413,0.0004-2.1616
		c-0.0067-0.2951,0.1503-0.7167-0.4046-0.7156c-0.6297,0.0012-1.055,0.3219-1.0572,0.8042c-0.003,0.6588-0.0332,1.3198,0.01,1.9758
		c0.0351,0.5321-0.304,0.4061-0.5933,0.4227c-0.3091,0.0178-0.5298,0.0295-0.5212-0.425c0.0313-1.6465,0.0078-3.294,0.0195-4.941
		c0.0011-0.1566-0.1383-0.519,0.2234-0.4098c0.2934,0.0886,0.827-0.1922,0.8552,0.4192C51.3139,0.909,51.2965,1.3805,51.2965,1.9105
		z"/>
	<path class="st0" d="M56.7063,2.8802c0.0004-0.4116-0.0165-0.8239,0.0039-1.2345c0.0445-0.8973,0.4942-1.3978,1.3847-1.5306
		c0.5931-0.0885,1.1901-0.0375,1.7859,0.0073c0.4436,0.0333,0.5939,0.2143,0.4857,0.673c-0.0603,0.2559-0.1191,0.3446-0.3857,0.3179
		c-0.4492-0.045-0.9026-0.0765-1.3535-0.0695c-0.5108,0.0079-0.7915,0.2631-0.7776,0.814c0.0181,0.7198,0.0249,1.4411-0.0019,2.1603
		c-0.0217,0.5843,0.2806,0.8377,0.8052,0.861c0.3672,0.0163,0.7377-0.0373,1.1066-0.0616c0.2905-0.0192,0.5725-0.1633,0.627,0.3705
		c0.0504,0.4942-0.1644,0.5655-0.5227,0.591c-0.553,0.0394-1.1036,0.1049-1.6618,0.0232c-0.9959-0.1458-1.4609-0.632-1.4938-1.6257
		C56.694,3.7449,56.7059,3.3124,56.7063,2.8802z"/>
	<path class="st0" d="M64.6929,3.5606c0.0153-0.5506,0.0612-1.2846-0.7035-1.7129c-1.5294-0.8717-3.0588-0.0152-3.0588,1.7282v0.367
		c-0.1071,1.5142,0.78,2.08,2.2788,1.8965c1.0706-0.1224,1.4681-0.6271,1.4835-1.6671C64.7082,4.0195,64.6929,3.8818,64.6929,3.5606
		z M63.6071,3.7289c0,1.1011-0.3212,1.4529-1.1012,1.2235c-0.6882-0.1988-0.4894-0.7647-0.5047-1.2235
		c0-0.4741-0.1529-1.04,0.5047-1.2388c0.6271-0.1988,1.0706,0.1223,1.1012,0.8105V3.7289z"/>
	<path class="st0" d="M44.5816,1.6642c-0.6118-0.1223-1.2235-0.0611-1.8353,0.0306c-0.3977,0.0459-0.367,0.2447-0.3517,0.5352
		c0.0305,0.3518,0.214,0.3212,0.4741,0.2906c0.367-0.0611,0.7341-0.0765,1.1011-0.0611c0.413,0.0306,0.52,0.3059,0.5353,0.6882
		c0,0.4894-0.3518,0.2906-0.5812,0.3211c-0.1988,0.0306-0.3977,0-0.6118,0.0153c-0.9329,0.0918-1.3306,0.6729-1.0859,1.5906
		c0.1988,0.7341,0.8564,0.994,1.82,0.6881c0.2448-0.0765,0.413-0.1835,0.7342,0c0.4894,0.2754,0.7494,0.0153,0.7647-0.5811V4.203
		c0-0.4741,0.0152-0.9482,0-1.4223C45.5145,2.1536,45.1933,1.8019,44.5816,1.6642z M43.7863,5.0442
		c-0.3364,0.0306-0.5659,0-0.5812-0.3517c-0.0153-0.52,0.367-0.4589,0.6729-0.4436c0.2294,0,0.5812-0.1682,0.5812,0.3059
		C44.4592,5.09,44.0309,4.9982,43.7863,5.0442z"/>
	<path class="st0" d="M48.2244,1.5751c0.1264,0.011,0.3719,0.0422,0.6183,0.0519c0.4229,0.0167,0.3956,0.2756,0.3748,0.5914
		c-0.0278,0.4226-0.2736,0.2951-0.5154,0.2693c-0.286-0.0305-0.5754-0.0302-0.8634-0.0406c-0.2093-0.0076-0.3689,0.0666-0.4,0.2935
		c-0.0311,0.2273,0.034,0.4027,0.2854,0.4717c0.3367,0.0924,0.669,0.2004,1.0049,0.2957c0.6264,0.1778,0.63,0.6705,0.6214,1.1857
		c-0.0087,0.519-0.1516,0.9294-0.7092,1.0876c-0.6796,0.1929-1.3463,0.0675-2.0169-0.0536c-0.345-0.0623-0.2599-0.287-0.2361-0.5136
		c0.0282-0.2682,0.1516-0.3416,0.4124-0.2974c0.3436,0.0582,0.6927,0.0931,1.0408,0.1118c0.2235,0.012,0.401-0.0789,0.4305-0.3413
		c0.0294-0.2612-0.0552-0.442-0.3251-0.5109c-0.1393-0.0356-0.2764-0.0799-0.4157-0.1155
		c-1.0596-0.2707-1.2732-0.5503-1.1635-1.5264c0.0729-0.6487,0.5336-0.9456,1.4888-0.9592
		C47.9389,1.5741,48.0213,1.5751,48.2244,1.5751z"/>
	<path class="st0" d="M67.5656,1.6027c0.3371,0.7101,0.0731,1.0887-0.56,1.2904c-0.3189,0.1015-0.4251,0.3211-0.412,0.6567
		c0.024,0.6153-0.0168,1.2333,0.0127,1.8481c0.0267,0.5567-0.3652,0.3489-0.6276,0.387c-0.3143,0.0456-0.4772-0.0233-0.4668-0.4109
		c0.0286-1.0674,0.0082-2.136,0.0109-3.2042c0.0012-0.4609,0.5228-0.7925,0.7689-0.4616c0.3861,0.5192,0.6246,0.1224,0.9293,0.0212
		C67.3363,1.6913,67.4492,1.6458,67.5656,1.6027z"/>
	<path class="st0" d="M55.8597,3.7532c0.0005,0.5533-0.0284,1.1086,0.009,1.6594c0.035,0.5155-0.3157,0.3595-0.5658,0.3694
		c-0.2669,0.0105-0.5681,0.1098-0.5533-0.3838c0.0337-1.1262,0.028-2.2544,0.0023-3.381C54.7413,1.5537,55.0382,1.66,55.279,1.6708
		c0.2484,0.0112,0.6093-0.1496,0.5861,0.3612C55.8391,2.6047,55.8591,3.1794,55.8597,3.7532z"/>
	<path class="st0" d="M55.3078,1.0668c-0.4213,0.1001-0.5567-0.0524-0.5658-0.4973c-0.0096-0.4699,0.1806-0.5127,0.5692-0.5102
		c0.39,0.0025,0.574,0.0534,0.5693,0.5195C55.8758,1.0374,55.7167,1.1589,55.3078,1.0668z"/>
</g>
</svg>
